# xmcd
#
# Track frame offsets:
#	150
#	14366
#	39090
#	64155
#	86204
#	110956
#	130598
#	148200
#	168884
#	195276
#	210156
#	229915
#	254898
#	277199
#
# Disc length: 3920 seconds
#
# Revision: 2
# Processed by: cddbd v1.5.2PL0 Copyright (c) Steve Scherf et al.
# Submitted via: EasyCDDAExtractor 16.0.9.1
#
DISCID=cc0f4e0e
DTITLE=Various Artist - Hat Doi 3
DYEAR=1900
DGENRE=Country
TTITLE0=Hoang Nghiep and Huong Tra - Bạn
TTITLE1=Thanh Thao and Ngo Kien Huy - Chuc Em Ngu Ngon 
TTITLE2=Huy Truc and  Hoa Mi - Noi Ay Troi Van Xanh
TTITLE3=Quang Vinh % Thu Thuy - Hieu Lam
TTITLE4=Khoi My and Noo Phuoc Thinh - Phep Mau Tinh Yeu
TTITLE5=Thuy Tien and Dai Nhan - Doi
TTITLE6=Toc Tien and Wanbi Tuan Anh - Thien Duong Nang Mai
TTITLE7=Anh Khang and Vuong Dung - Tieng Gio Hat
TTITLE8=Hoang Hai and Ngoc Anh - Say Dam
TTITLE9=Tang Nhat Tue and Tang Ngan Ha - Yeu Trong Anh Sang
TTITLE10=Khong Tu Quynh and Hoang Ton - Roi Mua Cung Roi
TTITLE11=Mi Van and Thien Minh - Loi Hua Tinh Yeu
TTITLE12=Dai Nhan - Tiet Hoc Cuoi Cung
TTITLE13=Dang Khoi - Gap Nhung Vi Sao Uoc Mo
EXTD=
EXTT0=
EXTT1=
EXTT2=
EXTT3=
EXTT4=
EXTT5=
EXTT6=
EXTT7=
EXTT8=
EXTT9=
EXTT10=
EXTT11=
EXTT12=
EXTT13=
PLAYORDER=
